<svg xmlns="http://www.w3.org/2000/svg" xmlns:xlink="http://www.w3.org/1999/xlink" aria-hidden="true" role="img" width="32" height="32" preserveAspectRatio="xMidYMid meet" viewBox="0 0 256 256">
  <defs>
    <linearGradient id="heartGradient" x1="0%" y1="0%" x2="100%" y2="100%">
      <stop offset="0%" stop-color="#FF8DC7"></stop>
      <stop offset="100%" stop-color="#FF3385"></stop>
    </linearGradient>
    <filter id="shadow" x="-20%" y="-20%" width="140%" height="140%">
      <feGaussianBlur stdDeviation="2"></feGaussianBlur>
    </filter>
  </defs>
  
  <!-- Shadow -->
  <path filter="url(#shadow)" fill="rgba(0,0,0,0.3)" d="M128 216C128 216 40 168 40 92C40 72 56 56 76 56C96 56 116 72 128 92C140 72 160 56 180 56C200 56 216 72 216 92C216 168 128 216 128 216Z"></path>
  
  <!-- Heart -->
  <path fill="url(#heartGradient)" d="M128 216C128 216 40 168 40 92C40 72 56 56 76 56C96 56 116 72 128 92C140 72 160 56 180 56C200 56 216 72 216 92C216 168 128 216 128 216Z"></path>
  
  <!-- Letter F -->
  <text x="95" y="150" font-family="Arial, sans-serif" font-weight="bold" font-size="80" fill="white">F</text>
</svg>